<svg width="72" height="72" fill="none" xmlns="http://www.w3.org/2000/svg"><g filter="url(#a)"><circle cx="36" cy="36" r="26" transform="rotate(90 36 36)" fill="#1F4172"/></g><path d="M35.277 43.222h7.945M39.25 27.91c.35-.37.827-.577 1.324-.577.246 0 .49.05.716.15.227.099.434.244.608.427.174.182.312.4.406.638a2.056 2.056 0 0 1 0 1.507 1.978 1.978 0 0 1-.406.639l-11.034 11.6-3.531.928.883-3.712 11.034-11.6Z" stroke="#fff" stroke-width="2" stroke-linecap="round" stroke-linejoin="round"/><defs><filter id="a" x="0" y="0" width="72" height="72" filterUnits="userSpaceOnUse" color-interpolation-filters="sRGB"><feFlood flood-opacity="0" result="BackgroundImageFix"/><feColorMatrix in="SourceAlpha" values="0 0 0 0 0 0 0 0 0 0 0 0 0 0 0 0 0 0 127 0" result="hardAlpha"/><feOffset/><feGaussianBlur stdDeviation="5"/><feComposite in2="hardAlpha" operator="out"/><feColorMatrix values="0 0 0 0 0 0 0 0 0 0 0 0 0 0 0 0 0 0 0.2 0"/><feBlend in2="BackgroundImageFix" result="effect1_dropShadow_636_9778"/><feBlend in="SourceGraphic" in2="effect1_dropShadow_636_9778" result="shape"/></filter></defs></svg>