<svg width="150" height="90" fill="none" xmlns="http://www.w3.org/2000/svg"><path d="M93.932 16.807h-.041C83.444 16.807 75 25.25 75 35.657v18.911c0 10.406 8.464 18.85 18.89 18.85h.042c10.447 0 18.891-8.444 18.891-18.85V35.657c0-10.407-8.464-18.85-18.891-18.85Z" fill="#fff" stroke="#C6C6C6" stroke-width="2" stroke-miterlimit="10"/><path d="M87.628 50.664c4.763 0 8.627-5.07 8.627-11.326s-3.864-11.326-8.627-11.326c-4.764 0-8.628 5.07-8.628 11.326s3.864 11.326 8.628 11.326Z" fill="#C6C6C6"/><path d="m93.761 30.299 2.944 5.152h-5.908l2.944-5.152h.02Z" fill="#fff"/><path d="M85.588 69.963H63.392c-2.33 0-4.236 1.681-4.236 3.736v10.928c0 2.055 1.906 3.736 4.236 3.736h22.196c2.33 0 4.235-1.681 4.235-3.736V73.699c0-2.055-1.906-3.736-4.235-3.736Z" fill="#C6C6C6" stroke="#C6C6C6" stroke-miterlimit="10"/><path d="M56.19 16.807h-.041c-10.447 0-18.891 8.443-18.891 18.85v18.911c0 10.406 8.464 18.85 18.89 18.85h.042c10.447 0 18.89-8.444 18.89-18.85V35.657c0-10.407-8.464-18.85-18.89-18.85Z" fill="#fff" stroke="#C6C6C6" stroke-width="2" stroke-miterlimit="10"/><path d="M49.565 50.664c4.764 0 8.628-5.07 8.628-11.326s-3.864-11.326-8.628-11.326-8.627 5.07-8.627 11.326 3.863 11.326 8.627 11.326Z" fill="#C6C6C6"/><path d="M139.32 57.837c-33.897-2.904-55.507 3.27-62.418 5.704a7.177 7.177 0 0 1-4.804 0c-6.91-2.413-28.52-8.608-62.418-5.704C7.595 58.02 6 60.004 6 62.355v13.82c0 1.616 1.533 2.597 3.067 2.209.204-.062.409-.082.613-.103 33.897-2.903 55.507 3.271 62.418 5.704a7.177 7.177 0 0 0 4.804 0c6.91-2.412 28.521-8.607 62.418-5.704h.061c1.902.205 3.619-1.145 3.619-3.087v-12.84c0-2.37-1.595-4.354-3.68-4.517Z" fill="#C6C6C6" stroke="#C6C6C6" stroke-width="2"/><path d="M139.32 47.751c-33.897-2.868-55.507 3.233-62.418 5.637a7.257 7.257 0 0 1-4.804 0c-6.91-2.384-28.52-8.505-62.418-5.637C7.595 47.933 6 49.893 6 52.216v13.657c0 1.596 1.533 2.566 3.067 2.182.204-.06.409-.08.613-.1 33.897-2.87 55.507 3.232 62.418 5.636a7.257 7.257 0 0 0 4.804 0c6.91-2.384 28.521-8.505 62.418-5.637h.061c1.902.202 3.619-1.131 3.619-3.05V52.216c0-2.343-1.595-4.303-3.68-4.465Z" fill="#fff" stroke="#C6C6C6" stroke-width="2"/><path d="m55.699 30.3 2.944 5.152h-5.909l2.944-5.152h.02Z" fill="#fff"/><path d="M6.01 55.211c7.4-.608 13.751-.828 18.697-.9 9.74-.139 15.452.315 16.88.426 3.175.261 5.831.581 7.715.835M142.622 55.072a293.925 293.925 0 0 0-19.27-.912c-10.039-.146-15.926.304-17.398.414-3.272.26-6.01.578-7.951.83M6.063 61.131a237.55 237.55 0 0 1 22.816-.859c11.878.123 18.83 1.125 20.567 1.37 3.864.573 7.095 1.227 9.384 1.738M142.447 61.131a237.54 237.54 0 0 0-22.816-.859c-11.878.123-18.829 1.125-20.567 1.37a132.149 132.149 0 0 0-9.384 1.738" stroke="#C6C6C6" stroke-width="2" stroke-linecap="round" stroke-linejoin="round"/></svg>