<svg width="56" height="18" fill="none" xmlns="http://www.w3.org/2000/svg"><path d="M8.7 10.326H3.525v3.617h3.817c.825 0 1.65-.087 2.493-.245.842-.159 1.53-.37 2.063-.615v3.196c-.516.263-1.22.474-2.08.632-.86.158-1.737.229-2.631.229h-5.57c-.86 0-1.565-.72-1.565-1.599V8.764c0-.878.705-1.598 1.564-1.598h5.175V3.618H1.565C.705 3.618 0 2.898 0 2.02 0 1.14.705.42 1.565.42h7.118c.86 0 1.564.72 1.564 1.599v6.708c0 .878-.705 1.598-1.564 1.598H8.7ZM14.563 18c-.963 0-1.737-.79-1.737-1.774V1.774C12.826.79 13.6 0 14.563 0c.963 0 1.736.79 1.736 1.774v14.435c0 .983-.773 1.773-1.736 1.773V18ZM35.316 17.368H20.753c-.894 0-1.633-.737-1.633-1.668 0-.913.722-1.668 1.633-1.668h14.563c.894 0 1.633.737 1.633 1.668 0 .913-.722 1.668-1.633 1.668Zm-.963-13.645H23.641v4.531H34.56c.894 0 1.616.738 1.616 1.65 0 .914-.722 1.652-1.617 1.652H21.682c-.895 0-1.617-.738-1.617-1.651V2.073c0-.914.722-1.651 1.616-1.651h12.672c.894 0 1.616.737 1.616 1.65 0 .931-.722 1.669-1.616 1.669v-.018ZM48.572 17.157h-7.221c-.894 0-1.599-.738-1.599-1.633V2.072c0-.913.722-1.633 1.599-1.633h7.221c.894 0 1.6.738 1.6 1.633v13.452c0 .913-.723 1.633-1.6 1.633Zm-1.874-3.337V3.74h-3.473v10.08h3.473ZM54.263 18c-.962 0-1.736-.79-1.736-1.774V1.774C52.527.79 53.3 0 54.263 0S56 .79 56 1.774v14.435c0 .983-.774 1.773-1.737 1.773V18Z" fill="#1F4172"/></svg>