<svg width="18" height="18" viewBox="0 0 18 18" fill="none" xmlns="http://www.w3.org/2000/svg">
<path d="M6.81809 17C7.21975 17 7.54537 16.6589 7.54537 16.2381C7.54537 15.8173 7.21975 15.4762 6.81809 15.4762C6.41643 15.4762 6.09082 15.8173 6.09082 16.2381C6.09082 16.6589 6.41643 17 6.81809 17Z" fill="white" stroke="#363636" stroke-linecap="round" stroke-linejoin="round"/>
<path d="M14.8186 17C15.2202 17 15.5459 16.6589 15.5459 16.2381C15.5459 15.8173 15.2202 15.4762 14.8186 15.4762C14.4169 15.4762 14.0913 15.8173 14.0913 16.2381C14.0913 16.6589 14.4169 17 14.8186 17Z" fill="white" stroke="#363636" stroke-linecap="round" stroke-linejoin="round"/>
<path d="M1 1H3.90909L5.85818 11.2019C5.92469 11.5527 6.10684 11.8678 6.37276 12.092C6.63868 12.3163 6.97142 12.4354 7.31273 12.4285H14.3818C14.7231 12.4354 15.0559 12.3163 15.3218 12.092C15.5877 11.8678 15.7699 11.5527 15.8364 11.2019L17 4.80952H4.63636" fill="white"/>
<path d="M1 1H3.90909L5.85818 11.2019C5.92469 11.5527 6.10684 11.8678 6.37276 12.092C6.63868 12.3163 6.97142 12.4354 7.31273 12.4286H14.3818C14.7231 12.4354 15.0559 12.3163 15.3218 12.092C15.5877 11.8678 15.7699 11.5527 15.8364 11.2019L17 4.80952H4.63636" stroke="#363636" stroke-linecap="round" stroke-linejoin="round"/>
</svg>
