<svg width="26" height="26" viewBox="0 0 26 26" fill="none" xmlns="http://www.w3.org/2000/svg">
<path d="M9.70399 25.3228C10.3049 25.3228 10.792 24.8042 10.792 24.1646C10.792 23.5249 10.3049 23.0063 9.70399 23.0063C9.10309 23.0063 8.61597 23.5249 8.61597 24.1646C8.61597 24.8042 9.10309 25.3228 9.70399 25.3228Z" fill="white" stroke="#363636" stroke-linecap="round" stroke-linejoin="round"/>
<path d="M21.6727 25.3228C22.2736 25.3228 22.7608 24.8042 22.7608 24.1646C22.7608 23.5249 22.2736 23.0063 21.6727 23.0063C21.0718 23.0063 20.5847 23.5249 20.5847 24.1646C20.5847 24.8042 21.0718 25.3228 21.6727 25.3228Z" fill="white" stroke="#363636" stroke-linecap="round" stroke-linejoin="round"/>
<path d="M1 1H5.35208L8.26797 16.5085C8.36746 17.0417 8.63997 17.5207 9.03779 17.8616C9.43561 18.2025 9.9334 18.3836 10.444 18.3732H21.0196C21.5302 18.3836 22.028 18.2025 22.4258 17.8616C22.8236 17.5207 23.0961 17.0417 23.1956 16.5085L24.9364 6.79107H6.4401" fill="white"/>
<path d="M1 1H5.35208L8.26797 16.5085C8.36746 17.0417 8.63997 17.5207 9.03779 17.8616C9.43561 18.2025 9.9334 18.3836 10.444 18.3732H21.0196C21.5302 18.3836 22.0279 18.2025 22.4258 17.8616C22.8236 17.5207 23.0961 17.0417 23.1956 16.5085L24.9364 6.79107H6.4401" stroke="#363636" stroke-linecap="round" stroke-linejoin="round"/>
</svg>
