<svg width="116" height="60" viewBox="0 0 116 60" fill="none" xmlns="http://www.w3.org/2000/svg">
<rect width="116" height="60" fill="white"/>
<path d="M29.2368 30.0415L16.1537 21.3907C15.2282 20.7793 14 21.4476 14 22.5624V36.9371C14 37.4093 14.236 37.8501 14.6285 38.1088L29.238 47.7689C29.7019 48.0752 30.3004 48.0752 30.7643 47.7689L45.3738 38.1088C45.7652 37.8501 46.0023 37.4093 46.0023 36.9371V22.5624C46.0023 21.4476 44.7729 20.7782 43.8486 21.3907L30.7655 30.0415C30.3016 30.3478 29.703 30.3478 29.2391 30.0415H29.2368Z" fill="#1F4172"/>
<path d="M44.2721 24.3478C43.9464 24.3478 43.616 24.255 43.3236 24.0601L28.4736 14.1936C27.677 13.6646 27.4572 12.5857 27.9821 11.7829C28.507 10.9801 29.5775 10.7585 30.374 11.2875L45.2229 21.1553C46.0195 21.6843 46.2393 22.7632 45.7144 23.5659C45.3829 24.0729 44.8327 24.3478 44.271 24.3478H44.2721Z" fill="#1F4172"/>
<path d="M38.2865 29.8003C37.9608 29.8003 37.6327 29.7075 37.3404 29.5149L21.9159 19.3061C21.1193 18.7783 20.8972 17.6994 21.4209 16.8966C21.9447 16.0938 23.0152 15.8699 23.8117 16.3978L39.2362 26.6066C40.0327 27.1344 40.2549 28.2133 39.7311 29.0161C39.3996 29.5254 38.8483 29.8015 38.2865 29.8015V29.8003Z" fill="#1F4172"/>
<path d="M15.8428 24.3478C15.3029 24.3478 14.7711 24.0937 14.435 23.6169C13.8825 22.8339 14.0632 21.748 14.8402 21.19L21.6315 16.3176C22.4085 15.7608 23.4871 15.9429 24.0396 16.726C24.5921 17.509 24.4114 18.5949 23.6344 19.1529L16.843 24.0253C16.5392 24.2434 16.1892 24.3478 15.8428 24.3478Z" fill="#1F4172"/>
<path d="M68.7 30.3259H63.5247V33.9434H67.3417C68.167 33.9434 68.9923 33.8556 69.8347 33.6976C70.6772 33.5395 71.365 33.3288 71.898 33.0829V36.279C71.3822 36.5424 70.6772 36.7532 69.8175 36.9112C68.9579 37.0693 68.081 37.1395 67.1869 37.1395H61.6162C60.7565 37.1395 60.0516 36.4195 60.0516 35.5415V28.7629C60.0516 27.8849 60.7565 27.1649 61.6162 27.1649H66.7915V23.6176H61.5646C60.7049 23.6176 60 22.8976 60 22.0195C60 21.1415 60.7049 20.4215 61.5646 20.4215H68.6828C69.5425 20.4215 70.2474 21.1415 70.2474 22.0195V28.7278C70.2474 29.6059 69.5425 30.3259 68.6828 30.3259H68.7ZM74.563 38C73.6001 38 72.8264 37.2098 72.8264 36.2263V21.7737C72.8264 20.7902 73.6001 20 74.563 20C75.5258 20 76.2995 20.7902 76.2995 21.7737V36.2088C76.2995 37.1922 75.5258 37.9824 74.563 37.9824V38Z" fill="#1F4172"/>
<path d="M95.3158 37.3682H80.7528C79.8587 37.3682 79.1194 36.6307 79.1194 35.6999C79.1194 34.7868 79.8415 34.0316 80.7528 34.0316H95.3158C96.2098 34.0316 96.9492 34.7692 96.9492 35.6999C96.9492 36.6131 96.227 37.3682 95.3158 37.3682ZM94.3529 23.7233H83.6413V28.2541H94.5592C95.4533 28.2541 96.1754 28.9916 96.1754 29.9048C96.1754 30.818 95.4533 31.5555 94.5592 31.5555H81.6812C80.7872 31.5555 80.065 30.818 80.065 29.9048V22.0726C80.065 21.1594 80.7872 20.4219 81.6812 20.4219H94.3529C95.247 20.4219 95.9691 21.1594 95.9691 22.0726C95.9691 23.0033 95.247 23.7409 94.3529 23.7409V23.7233Z" fill="#1F4172"/>
<path d="M108.572 37.1571H101.351C100.457 37.1571 99.752 36.4195 99.752 35.5239V22.0722C99.752 21.159 100.474 20.439 101.351 20.439H108.572C109.466 20.439 110.171 21.1766 110.171 22.0722V35.5239C110.171 36.4371 109.449 37.1571 108.572 37.1571ZM106.698 33.8205V23.7405H103.225V33.8205H106.698ZM114.263 38C113.301 38 112.527 37.2098 112.527 36.2263V21.7737C112.527 20.7902 113.301 20 114.263 20C115.226 20 116 20.7902 116 21.7737V36.2088C116 37.1922 115.226 37.9824 114.263 37.9824V38Z" fill="#1F4172"/>
</svg>
