<svg xmlns="http://www.w3.org/2000/svg" width="24" height="24" fill="none"><path fill="#fff" d="M0 0h24v24H0z"/><path stroke="#767676" stroke-linecap="round" stroke-linejoin="round" stroke-width="2" d="M16.32 16.455c-1.2432.9773-2.757 1.5186-4.32 1.545-5.09091 0-8-6-8-6 .90465-1.7386 2.15937-3.25753 3.68-4.45498m2.7927-1.365a6.44119 6.44119 0 0 1 1.5273-.18C17.0909 6.00002 20 12 20 12c-.4415.8517-.968 1.6536-1.5709 2.3925m-4.8873-.8025c-.1997.2211-.4406.3984-.7082.5213-.2677.123-.5566.1892-.8495.1945-.293.0053-.584-.0503-.8557-.1634-.2716-.1132-.5184-.2816-.7256-.4953-.2072-.2136-.3705-.4681-.48025-.7483-.10973-.2802-.16362-.5803-.15845-.8824.00517-.3021.06929-.6.18854-.876.11926-.276.29116-.5244.50556-.7304M4 4l16 16"/></svg>