<svg xmlns="http://www.w3.org/2000/svg" width="24" height="24" fill="none"><path fill="#fff" d="M0 0h24v24H0z"/><path stroke="#767676" stroke-linecap="round" stroke-linejoin="round" stroke-width="2" d="M16.32 16.455A7.183 7.183 0 0 1 12 18c-5.09 0-8-6-8-6a13.734 13.734 0 0 1 3.68-4.455m2.793-1.365A6.441 6.441 0 0 1 12 6c5.09 0 8 6 8 6a13.91 13.91 0 0 1-1.57 2.393m-4.888-.803c-.2.221-.44.398-.708.521a2.126 2.126 0 0 1-2.431-.464 2.256 2.256 0 0 1-.48-.748 2.313 2.313 0 0 1 .03-1.759 2.25 2.25 0 0 1 .505-.73M4 4l16 16"/></svg>