<svg width="20" height="18" viewBox="0 0 20 18" fill="none" xmlns="http://www.w3.org/2000/svg">
<path d="M18.4578 1.59133C17.9691 1.08683 17.3889 0.686629 16.7503 0.413583C16.1117 0.140537 15.4272 0 14.7359 0C14.0446 0 13.3601 0.140537 12.7215 0.413583C12.0829 0.686629 11.5026 1.08683 11.0139 1.59133L9.99974 2.63785L8.98554 1.59133C7.99842 0.572757 6.6596 0.000527962 5.26361 0.000527973C3.86761 0.000527984 2.52879 0.572757 1.54168 1.59133C0.554557 2.6099 1.0401e-08 3.99139 0 5.43187C-1.0401e-08 6.87235 0.554557 8.25383 1.54168 9.2724L2.55588 10.3189L9.99974 18L17.4436 10.3189L18.4578 9.2724C18.9467 8.76814 19.3346 8.16942 19.5992 7.51045C19.8638 6.85148 20 6.14517 20 5.43187C20 4.71857 19.8638 4.01225 19.5992 3.35328C19.3346 2.69431 18.9467 2.09559 18.4578 1.59133Z" fill="#FF5A5A"/>
</svg>
