<svg width="48" height="48" viewBox="0 0 48 48" fill="none" xmlns="http://www.w3.org/2000/svg">
<rect width="48" height="48" rx="24" fill="#DBDBDB"/>
<path d="M31.6781 32.7009V29.9771C31.6781 28.5323 31.2672 27.1467 30.5358 26.1251C29.8044 25.1035 28.8125 24.5295 27.7781 24.5295H19.9781C18.9438 24.5295 17.9518 25.1035 17.2204 26.1251C16.489 27.1467 16.0781 28.5323 16.0781 29.9771V32.7009" fill="white"/>
<path d="M23.8766 22.92C26.0305 22.92 27.7766 21.1739 27.7766 19.02C27.7766 16.8661 26.0305 15.12 23.8766 15.12C21.7227 15.12 19.9766 16.8661 19.9766 19.02C19.9766 21.1739 21.7227 22.92 23.8766 22.92Z" fill="white"/>
</svg>
