<svg width="18" height="18" viewBox="0 0 18 18" fill="none" xmlns="http://www.w3.org/2000/svg">
<path d="M17 16.9999V15.2221C17 14.2791 16.5786 13.3747 15.8284 12.7079C15.0783 12.0411 14.0609 11.6665 13 11.6665H5C3.93913 11.6665 2.92172 12.0411 2.17157 12.7079C1.42143 13.3747 1 14.2791 1 15.2221V16.9999" fill="white"/>
<path d="M17 16.9999V15.2221C17 14.2791 16.5786 13.3747 15.8284 12.7079C15.0783 12.0411 14.0609 11.6665 13 11.6665H5C3.93913 11.6665 2.92172 12.0411 2.17157 12.7079C1.42143 13.3747 1 14.2791 1 15.2221V16.9999" stroke="#363636" stroke-linecap="round" stroke-linejoin="round"/>
<path d="M9.00098 8.11113C11.2101 8.11113 13.001 6.51925 13.001 4.55557C13.001 2.59188 11.2101 1 9.00098 1C6.79184 1 5.00098 2.59188 5.00098 4.55557C5.00098 6.51925 6.79184 8.11113 9.00098 8.11113Z" fill="white" stroke="#363636" stroke-linecap="round" stroke-linejoin="round"/>
</svg>
