<svg width="23" height="26" fill="none" xmlns="http://www.w3.org/2000/svg"><path d="M11 13c3.31 0 6-2.69 6-6s-2.68-6-6-6-6 2.69-6 6 2.69 6 6 6Z" fill="#fff" stroke="#363636" stroke-linecap="round" stroke-linejoin="round"/><path d="M22 25v-2.667a5.376 5.376 0 0 0-1.538-3.77A5.209 5.209 0 0 0 16.75 17H6.25a5.209 5.209 0 0 0-3.712 1.562A5.376 5.376 0 0 0 1 22.333V25" fill="#fff"/><path d="M22 25v-2.667a5.376 5.376 0 0 0-1.538-3.77A5.209 5.209 0 0 0 16.75 17H6.25a5.209 5.209 0 0 0-3.712 1.562A5.376 5.376 0 0 0 1 22.333V25" stroke="#363636" stroke-linecap="round" stroke-linejoin="round"/></svg>