<svg width="23" height="26" viewBox="0 0 23 26" fill="none" xmlns="http://www.w3.org/2000/svg">
<path d="M11 13C14.31 13 17 10.31 17 7C17 3.69 14.32 1 11 1C7.68 1 5 3.69 5 7C5 10.31 7.69 13 11 13Z" fill="white" stroke="#363636" stroke-linecap="round" stroke-linejoin="round"/>
<path d="M22 25V22.3333C22 20.9188 21.4469 19.5623 20.4623 18.5621C19.4777 17.5619 18.1424 17 16.75 17H6.25C4.85761 17 3.52226 17.5619 2.53769 18.5621C1.55312 19.5623 1 20.9188 1 22.3333V25" fill="white"/>
<path d="M22 25V22.3333C22 20.9188 21.4469 19.5623 20.4623 18.5621C19.4777 17.5619 18.1424 17 16.75 17H6.25C4.85761 17 3.52226 17.5619 2.53769 18.5621C1.55312 19.5623 1 20.9188 1 22.3333V25" stroke="#363636" stroke-linecap="round" stroke-linejoin="round"/>
</svg>
