<svg width="32" height="37" viewBox="0 0 32 37" fill="none" xmlns="http://www.w3.org/2000/svg">
<g id="&#235;&#160;&#136;&#236;&#157;&#180;&#236;&#150;&#180; 1">
<g id="Group">
<path id="Vector" d="M15.2368 19.042L2.15367 10.3912C1.2282 9.77983 0 10.448 0 11.5629V25.9376C0 26.4098 0.235971 26.8506 0.628489 27.1093L15.238 36.7694C15.7019 37.0757 16.3004 37.0757 16.7643 36.7694L31.3738 27.1093C31.7652 26.8506 32.0023 26.4098 32.0023 25.9376V11.5629C32.0023 10.448 30.7729 9.77867 29.8486 10.3912L16.7655 19.042C16.3016 19.3483 15.703 19.3483 15.2391 19.042H15.2368Z" fill="#1F4172"/>
<path id="Vector_2" d="M30.2721 13.3483C29.9464 13.3483 29.616 13.2555 29.3236 13.0606L14.4736 3.19404C13.677 2.66504 13.4572 1.58615 13.9821 0.783368C14.507 -0.0194162 15.5775 -0.240994 16.374 0.288008L31.2229 10.1558C32.0195 10.6848 32.2393 11.7636 31.7144 12.5664C31.3829 13.0734 30.8327 13.3483 30.271 13.3483H30.2721Z" fill="#1F4172"/>
<path id="Vector_3" d="M24.2865 18.8008C23.9608 18.8008 23.6327 18.708 23.3404 18.5154L7.91589 8.3066C7.11935 7.77876 6.89719 6.69987 7.42093 5.89709C7.94467 5.09431 9.01518 4.87041 9.81172 5.39825L25.2362 15.6071C26.0327 16.1349 26.2549 17.2138 25.7311 18.0166C25.3996 18.5259 24.8483 18.802 24.2865 18.802V18.8008Z" fill="#1F4172"/>
<path id="Vector_4" d="M1.84276 13.3483C1.3029 13.3483 0.771103 13.0942 0.434988 12.6174C-0.11753 11.8344 0.0631892 10.7485 0.840168 10.1905L7.63153 5.31811C8.40851 4.76126 9.48707 4.9434 10.0396 5.72646C10.5921 6.50952 10.4114 7.59537 9.63441 8.15338L2.84305 13.0258C2.53916 13.2439 2.18923 13.3483 1.84276 13.3483Z" fill="#1F4172"/>
</g>
</g>
</svg>
