<svg width="30" height="30" viewBox="0 0 30 30" fill="none" xmlns="http://www.w3.org/2000/svg">
<rect width="30" height="30" fill="white"/>
<path d="M23.1847 9.54559C25.444 9.54559 27.2756 7.71403 27.2756 5.45468C27.2756 3.19533 25.444 1.36377 23.1847 1.36377C20.9253 1.36377 19.0938 3.19533 19.0938 5.45468C19.0938 7.71403 20.9253 9.54559 23.1847 9.54559Z" stroke="#363636" stroke-linecap="round" stroke-linejoin="round"/>
<path d="M6.81747 19.091C9.07682 19.091 10.9084 17.2594 10.9084 15.0001C10.9084 12.7407 9.07682 10.9092 6.81747 10.9092C4.55812 10.9092 2.72656 12.7407 2.72656 15.0001C2.72656 17.2594 4.55812 19.091 6.81747 19.091Z" stroke="#363636" stroke-linecap="round" stroke-linejoin="round"/>
<path d="M23.1847 28.6364C25.444 28.6364 27.2756 26.8048 27.2756 24.5455C27.2756 22.2862 25.444 20.4546 23.1847 20.4546C20.9253 20.4546 19.0938 22.2862 19.0938 24.5455C19.0938 26.8048 20.9253 28.6364 23.1847 28.6364Z" stroke="#363636" stroke-linecap="round" stroke-linejoin="round"/>
<path d="M10.3516 17.0596L19.6652 22.4868" stroke="#363636" stroke-linecap="round" stroke-linejoin="round"/>
<path d="M19.6516 7.51367L10.3516 12.9409" stroke="#363636" stroke-linecap="round" stroke-linejoin="round"/>
</svg>
